<svg width="36" height="36" viewBox="0 0 36 36" fill="none" xmlns="http://www.w3.org/2000/svg">
<path d="M30.075 17.205L19.575 6.705C19.2856 6.42365 18.8681 6.31806 18.4797 6.42801C18.0914 6.53795 17.7912 6.84672 17.6922 7.23801C17.5933 7.62929 17.7106 8.04365 18 8.325L26.565 16.875H6.71997C6.09865 16.875 5.59497 17.3787 5.59497 18C5.59497 18.6213 6.09865 19.125 6.71997 19.125H26.55L18 27.675C17.7855 27.8839 17.6646 28.1706 17.6646 28.47C17.6646 28.7694 17.7855 29.0561 18 29.265C18.2067 29.482 18.4953 29.6018 18.795 29.595C19.0936 29.5964 19.3801 29.4775 19.59 29.265L30.09 18.765C30.5287 18.3258 30.5287 17.6142 30.09 17.175L30.075 17.205Z" fill="black" stroke="black" stroke-width="2"/>
</svg>
