<svg width="31" height="25" viewBox="0 0 31 25" fill="none" xmlns="http://www.w3.org/2000/svg">
<path fill-rule="evenodd" clip-rule="evenodd" d="M28.0027 8.97604C29.0974 8.97351 30.1038 9.57269 30.6183 10.5333C31.1526 11.4743 31.1242 12.6309 30.5444 13.5449L23.7912 23.608C23.0892 24.7355 21.7146 25.2558 20.4361 24.8779C19.1576 24.5 18.2921 23.3177 18.3237 21.992V17.8052H15.1614C14.1034 17.8094 13.1239 17.251 12.5931 16.3412C12.0623 15.4313 12.0611 14.3088 12.5901 13.398L19.4467 1.46907C19.9741 0.56094 20.9484 0.00107558 22.0032 0C23.6354 0 24.9586 1.31545 24.9586 2.93815V8.97604H28.0027ZM21.8702 22.3887L28.6234 12.3255C28.7948 12.0987 28.8196 11.794 28.6869 11.5428C28.5542 11.2915 28.2879 11.1387 28.0027 11.1503H24.2198C23.4036 11.1503 22.7421 10.4925 22.7421 9.6812V2.90877C22.7421 2.71138 22.6622 2.52229 22.5204 2.38411C22.3787 2.24592 22.1869 2.17028 21.9884 2.17423C21.7178 2.17514 21.4714 2.329 21.353 2.57088L14.4964 14.4998C14.371 14.7277 14.376 15.0045 14.5095 15.2277C14.643 15.451 14.8853 15.5876 15.1466 15.5869H19.0478C19.8639 15.5869 20.5255 16.2446 20.5255 17.056V21.9774C20.5294 22.2965 20.7402 22.5765 21.047 22.6704C21.3538 22.7643 21.6865 22.6504 21.8702 22.3887Z" fill="black"/>
<path d="M9.97458 4.18686C7.20635 4.70918 5.64902 4.68289 2.88155 4.18686C2.26946 4.18686 1.77326 4.68016 1.77326 5.28867C1.77326 5.89718 2.26946 6.39047 2.88155 6.39047H9.97458C10.5867 6.39047 11.0829 5.89718 11.0829 5.28867C11.0829 4.68016 10.5867 4.18686 9.97458 4.18686Z" fill="black"/>
<path d="M9.30961 12.2374C9.30165 11.6322 8.81009 11.1435 8.20132 11.1356H1.10829C0.496197 11.1356 0 11.6289 0 12.2374C0 12.8459 0.496197 13.3392 1.10829 13.3392H8.20132C8.49526 13.3392 8.77716 13.2231 8.985 13.0165C9.19284 12.8099 9.30961 12.5296 9.30961 12.2374Z" fill="black"/>
<path d="M9.97458 19.6121H2.88155C2.26946 19.6121 1.77326 20.1054 1.77326 20.7139C1.77326 21.3225 2.26946 21.8158 2.88155 21.8158H9.97458C10.5867 21.8158 11.0829 21.3225 11.0829 20.7139C11.0829 20.1054 10.5867 19.6121 9.97458 19.6121Z" fill="black"/>
</svg>
