<svg width="270" height="193" viewBox="0 0 270 193" fill="none" xmlns="http://www.w3.org/2000/svg">
<g clip-path="url(#clip0_305_613)">
<path d="M43.8532 41.4687C43.8532 41.4687 50.0153 10.6446 76.7174 2.42483C103.42 -5.79493 124.987 11.6721 133.203 15.7819C139.817 19.0904 143.473 -1.27406 175.31 0.06165C207.147 1.39736 223.579 26.0566 223.97 41.4687C224.052 44.5717 237.444 45.1881 250.261 54.8258C266.693 67.1555 272.855 95.9246 268.747 112.364C263.838 131.989 239.991 151.408 225.613 149.353C225.613 149.353 227.667 165.793 207.127 180.177C186.587 194.562 149.614 198.672 137.29 180.177C129.074 167.848 122.645 197.089 92.102 192.507C51.0217 186.342 46.0921 163.286 43.8327 152.292C42.8262 147.298 -0.308046 137.023 5.57621e-05 99.3769C0.267077 67.1555 26.3941 40.4412 43.8532 41.4687Z" fill="#CCC3D1"/>
<path d="M94.1765 86.6774C98.1469 86.6774 101.366 83.4573 101.366 79.4851C101.366 75.5129 98.1469 72.2928 94.1765 72.2928C90.2061 72.2928 86.9874 75.5129 86.9874 79.4851C86.9874 83.4573 90.2061 86.6774 94.1765 86.6774Z" fill="#7E5B2D"/>
<path d="M174.283 86.6774C178.253 86.6774 181.472 83.4573 181.472 79.4851C181.472 75.5129 178.253 72.2928 174.283 72.2928C170.313 72.2928 167.094 75.5129 167.094 79.4851C167.094 83.4573 170.313 86.6774 174.283 86.6774Z" fill="#7E5B2D"/>
<path d="M130.389 74.3477V90.7873C130.389 95.7397 138.091 95.7602 138.091 90.7873V74.3477C138.091 69.3953 130.389 69.3748 130.389 74.3477Z" fill="#7E5C2E"/>
<path d="M118.065 103.117C118.003 107.617 117.736 112.22 120.016 116.31C123.364 122.331 130.676 124.262 137.146 123.379C146.944 122.022 151.525 112.261 150.415 103.137C149.82 98.2673 142.117 98.2262 142.713 103.137C143.308 108.049 142.405 114.09 137.167 115.57C133.223 116.68 127.801 115.714 126.26 111.522C125.295 108.871 125.706 105.891 125.747 103.137C125.808 98.1851 118.106 98.1851 118.044 103.137L118.065 103.117Z" fill="#7E5C2E"/>
</g>
<defs>
<clipPath id="clip0_305_613">
<rect width="270" height="193" fill="white"/>
</clipPath>
</defs>
</svg>
