<svg width="29" height="30" viewBox="0 0 29 30" fill="none" xmlns="http://www.w3.org/2000/svg">
<g clip-path="url(#clip0_341_555)">
<path d="M3.65999 13.57C2.63999 12.78 0.0299871 10.89 1.96999 7.70999C2.50999 6.82999 5.04999 4.53999 8.54999 5.91999C8.54999 5.91999 8.67999 1.47999 11.96 1.04999C15.94 0.529985 16.78 4.09999 17.24 4.77999C17.24 4.77999 20.17 1.81999 22.99 3.65999C25.15 5.06999 25.2 9.25998 23.94 10.9C23.94 10.9 27.84 12.23 27.91 15.9C27.98 19.21 24.35 19.68 23.27 19.83C23.27 19.83 24.14 24.57 22.22 25.86C20.19 27.23 16.28 25.54 15.41 24.54C15.41 24.54 14.08 28.4 10.72 28.1C7.35999 27.8 7.29999 24.5 6.95999 21.96C6.95999 21.96 1.88999 22.63 1.09999 19.42C0.309987 16.21 3.84999 13.72 3.63999 13.56L3.65999 13.57Z" stroke="#FACBAF" stroke-width="2" stroke-miterlimit="10"/>
<path d="M7.17003 13.19C7.79963 13.19 8.31003 12.6796 8.31003 12.05C8.31003 11.4204 7.79963 10.91 7.17003 10.91C6.54042 10.91 6.03003 11.4204 6.03003 12.05C6.03003 12.6796 6.54042 13.19 7.17003 13.19Z" fill="#7E5B2D"/>
<path d="M19.84 13.19C20.4696 13.19 20.98 12.6796 20.98 12.05C20.98 11.4204 20.4696 10.91 19.84 10.91C19.2104 10.91 18.7 11.4204 18.7 12.05C18.7 12.6796 19.2104 13.19 19.84 13.19Z" fill="#7E5B2D"/>
<path d="M12.9 11.23V13.83C12.9 14.61 14.12 14.62 14.12 13.83V11.23C14.12 10.45 12.9 10.44 12.9 11.23Z" fill="#7E5C2E"/>
<path d="M10.95 15.78C10.94 16.49 10.9 17.22 11.26 17.87C11.79 18.82 12.95 19.13 13.97 18.99C15.52 18.78 16.25 17.23 16.07 15.79C15.98 15.02 14.76 15.01 14.85 15.79C14.94 16.57 14.8 17.52 13.97 17.76C13.35 17.94 12.49 17.78 12.25 17.12C12.1 16.7 12.16 16.23 12.17 15.79C12.18 15.01 10.96 15.01 10.95 15.79V15.78Z" fill="#7E5C2E"/>
</g>
<defs>
<clipPath id="clip0_341_555">
<rect width="28.92" height="29.13" fill="white"/>
</clipPath>
</defs>
</svg>
