<svg width="231" height="237" viewBox="0 0 231 237" fill="none" xmlns="http://www.w3.org/2000/svg">
<g clip-path="url(#clip0_305_606)">
<path d="M108.301 7.584C108.301 7.584 108.529 194.605 107.352 209.679C106.402 221.832 97.8549 224.676 92.1568 224.676C86.4588 224.676 83.6097 223.728 79.811 218.04C76.0123 212.352 74.1129 210.456 70.3142 210.456C62.2609 210.456 67.3702 224.581 72.2136 229.416C77.9116 235.104 85.5091 237 96.9052 237C106.402 237 119.698 231.312 121.597 216.144C123.496 200.976 121.597 13.272 121.597 6.636C121.597 0 117.798 0 113.999 0C109.745 0 108.301 1.896 108.301 7.584Z" fill="#7D9BB5"/>
<path d="M107.352 31.284C128.226 30.6204 163.383 34.128 189.024 54.036C215.558 74.6265 231.76 100.488 230.81 129.876C230.335 144.361 237.496 123.24 193.773 123.24C180.477 123.24 163.022 131.184 155.785 138.408C151.987 142.2 142.49 123.24 115.899 123.24C89.3079 123.24 85.5091 132.72 77.9117 140.304C74.113 144.096 70.3143 123.24 41.8239 123.24C13.3335 123.24 0.0379972 134.616 0.0379972 134.616C0.0379972 134.616 -1.86136 100.488 19.0316 73.944C39.9245 47.4 77.9117 32.232 107.352 31.284Z" fill="#8AC2E8"/>
<path d="M77.9117 72.996C81.5831 72.996 84.5594 70.025 84.5594 66.36C84.5594 62.695 81.5831 59.724 77.9117 59.724C74.2402 59.724 71.2639 62.695 71.2639 66.36C71.2639 70.025 74.2402 72.996 77.9117 72.996Z" fill="#7E5B2D"/>
<path d="M151.987 72.996C155.658 72.996 158.634 70.025 158.634 66.36C158.634 62.695 155.658 59.724 151.987 59.724C148.315 59.724 145.339 62.695 145.339 66.36C145.339 70.025 148.315 72.996 151.987 72.996Z" fill="#7E5B2D"/>
<path d="M111.397 61.62V76.788C111.397 81.3574 118.52 81.3764 118.52 76.788V61.62C118.52 57.0507 111.397 57.0317 111.397 61.62Z" fill="#7E5C2E"/>
<path d="M100.001 88.164C99.9442 92.3163 99.6973 96.5633 101.806 100.336C104.902 105.892 111.663 107.674 117.646 106.859C126.706 105.607 130.942 96.6012 129.916 88.183C129.365 83.6895 122.243 83.6516 122.793 88.183C123.344 92.7144 122.509 98.2887 117.665 99.6538C114.018 100.678 109.004 99.7865 107.58 95.9187C106.687 93.4728 107.067 90.7236 107.105 88.183C107.162 83.6136 100.039 83.6136 99.9822 88.183L100.001 88.164Z" fill="#7E5C2E"/>
</g>
<defs>
<clipPath id="clip0_305_606">
<rect width="231" height="237" fill="white"/>
</clipPath>
</defs>
</svg>
