<svg width="189" height="265" viewBox="0 0 189 265" fill="none" xmlns="http://www.w3.org/2000/svg">
<g clip-path="url(#clip0_305_628)">
<path d="M104.15 33.5786L133.1 0L162.405 18.5621L150.191 60.3581L104.15 33.5786Z" fill="#DC9B81"/>
<path d="M30.1383 128.266C30.1383 128.266 -5.29403 65.6973 56.1914 35.4557C109.319 9.32274 151.025 44.841 159.362 63.6117C169.971 87.4921 163.53 115.085 155.193 128.266C155.193 128.266 177.099 134.21 186.457 167.893C196.878 205.434 173.952 236.719 140.604 253.404C102.587 272.425 55.983 267.419 28.054 242.976C-5.29403 213.777 -3.0222 186.726 5.12723 159.551C11.38 138.694 21.8013 132.437 30.1383 128.266Z" fill="#BCDBE8"/>
<path d="M55.1493 89.682C59.1782 89.682 62.4442 86.4139 62.4442 82.3823C62.4442 78.3508 59.1782 75.0826 55.1493 75.0826C51.1205 75.0826 47.8544 78.3508 47.8544 82.3823C47.8544 86.4139 51.1205 89.682 55.1493 89.682Z" fill="#7E5B2D"/>
<path d="M130.182 89.682C134.211 89.682 137.477 86.4139 137.477 82.3823C137.477 78.3508 134.211 75.0826 130.182 75.0826C126.153 75.0826 122.887 78.3508 122.887 82.3823C122.887 86.4139 126.153 89.682 130.182 89.682Z" fill="#7E5B2D"/>
<path d="M89.7896 79.2539V91.7677C89.7896 96.7941 97.6055 96.8149 97.6055 91.7677V79.2539C97.6055 74.2276 89.7896 74.2067 89.7896 79.2539Z" fill="#7E5C2E"/>
<path d="M78.8056 106.367C78.743 110.371 78.5138 114.459 80.5355 118.088C83.516 123.448 90.0188 125.159 95.7714 124.366C104.484 123.156 108.548 114.48 107.568 106.367C107.047 102.05 100.19 101.987 100.711 106.367C101.232 110.747 100.44 116.107 95.7922 117.421C92.2907 118.422 87.4552 117.567 86.1005 113.813C85.2459 111.456 85.6211 108.807 85.6419 106.367C85.7044 101.946 78.8472 101.946 78.7847 106.367H78.8056Z" fill="#7E5C2E"/>
</g>
<defs>
<clipPath id="clip0_305_628">
<rect width="189" height="265" fill="white"/>
</clipPath>
</defs>
</svg>
