<svg width="269" height="262" viewBox="0 0 269 262" fill="none" xmlns="http://www.w3.org/2000/svg">
<g clip-path="url(#clip0_305_598)">
<path d="M136.156 211.046C180.999 211.046 217.351 175.645 217.351 131.976C217.351 88.3062 180.999 52.9052 136.156 52.9052C91.3125 52.9052 54.96 88.3062 54.96 131.976C54.96 175.645 91.3125 211.046 136.156 211.046Z" fill="#E49841"/>
<path d="M93.976 124.787C98.0527 124.787 101.357 121.569 101.357 117.599C101.357 113.629 98.0527 110.411 93.976 110.411C89.8994 110.411 86.5946 113.629 86.5946 117.599C86.5946 121.569 89.8994 124.787 93.976 124.787Z" fill="#7E5B2D"/>
<path d="M176.226 124.787C180.303 124.787 183.608 121.569 183.608 117.599C183.608 113.629 180.303 110.411 176.226 110.411C172.15 110.411 168.845 113.629 168.845 117.599C168.845 121.569 172.15 124.787 176.226 124.787Z" fill="#7E5B2D"/>
<path d="M131.136 112.465V128.895C131.136 133.844 139.045 133.865 139.045 128.895V112.465C139.045 107.515 131.136 107.495 131.136 112.465Z" fill="#7E5C2E"/>
<path d="M118.482 141.218C118.419 145.715 118.145 150.316 120.486 154.403C123.923 160.42 131.431 162.351 138.075 161.468C148.134 160.112 152.837 150.357 151.699 141.238C151.087 136.371 143.178 136.33 143.79 141.238C144.402 146.147 143.474 152.185 138.096 153.663C134.047 154.772 128.479 153.807 126.897 149.617C125.906 146.968 126.328 143.99 126.37 141.238C126.433 136.288 118.524 136.288 118.461 141.238L118.482 141.218Z" fill="#7E5C2E"/>
<path d="M187.826 48.7977C198.37 54.959 213.133 67.6924 219.46 79.6043C219.46 79.6043 232.114 48.7977 232.114 40.5826C232.114 36.475 227.896 34.4212 221.569 36.475C215.242 38.5288 186.012 47.7502 187.826 48.7977Z" fill="#E49841"/>
<path d="M231.102 109.774C233.611 121.501 234.033 140.704 229.351 153.314C229.351 153.314 261.176 141.443 267.355 135.878C270.455 133.085 269.148 128.669 263.285 125.547C257.422 122.425 230.659 107.782 231.081 109.774H231.102Z" fill="#E49841"/>
<path d="M217.9 180.897C211.573 191.165 198.497 205.542 186.265 211.703C186.265 211.703 217.9 224.026 226.335 224.026C230.553 224.026 232.662 219.918 230.553 213.757C228.444 207.596 218.975 179.13 217.9 180.897Z" fill="#E49841"/>
<path d="M156.634 223.348C144.844 226.757 125.231 228.729 111.944 225.217C111.944 225.217 126.707 255.12 132.908 260.686C136.008 263.458 140.416 261.815 143.136 255.9C145.857 249.985 158.637 222.773 156.634 223.348Z" fill="#E49841"/>
<path d="M83.3046 211.272C72.7597 205.111 57.9969 192.377 51.67 180.465C51.67 180.465 39.0161 211.272 39.0161 219.487C39.0161 223.594 43.2341 225.648 49.561 223.594C55.8879 221.541 85.1183 212.319 83.3046 211.272Z" fill="#E49841"/>
<path d="M39.0794 151.897C35.937 140.314 34.4818 121.173 38.4678 108.337C38.4678 108.337 7.33926 121.83 1.45521 127.724C-1.47627 130.661 0.0632881 134.995 6.07387 137.829C12.0845 140.663 39.6277 153.889 39.0794 151.918V151.897Z" fill="#E49841"/>
<path d="M51.1848 78.3926C57.5118 68.1237 70.5874 53.7473 82.8195 47.586C82.8195 47.586 51.1848 35.2633 42.7489 35.2633C38.531 35.2633 36.422 39.3709 38.531 45.5322C40.64 51.6935 50.1093 80.1588 51.1848 78.3926Z" fill="#E49841"/>
<path d="M111.544 37.9536C123.438 34.9551 143.115 33.6201 156.275 37.5634C156.275 37.5634 142.567 7.18804 136.556 1.41693C133.54 -1.45835 129.09 0.0203658 126.159 5.87362C123.228 11.7063 109.498 38.467 111.544 37.9536Z" fill="#E49841"/>
</g>
<defs>
<clipPath id="clip0_305_598">
<rect width="269" height="262" fill="white"/>
</clipPath>
</defs>
</svg>
