<svg width="235" height="270" viewBox="0 0 235 270" fill="none" xmlns="http://www.w3.org/2000/svg">
<g clip-path="url(#clip0_305_620)">
<path d="M77.3477 36.3138C77.3477 36.3138 187.847 34.1938 187.906 36.3138C187.984 39.2581 157.633 87.3494 155.674 89.3123C153.716 91.2752 232.65 88.3308 234.98 92.2566C237.311 96.1824 63.6405 267.937 53.8497 271.863C44.0588 275.788 76.3686 192.365 76.3686 186.476C76.3686 180.587 41.1215 184.513 37.2052 184.513C33.2889 184.513 74.4104 43.184 77.3477 36.3138Z" fill="#EDC246"/>
<path d="M85.8658 124.056C89.4887 124.056 92.4256 121.112 92.4256 117.48C92.4256 113.848 89.4887 110.904 85.8658 110.904C82.2429 110.904 79.3059 113.848 79.3059 117.48C79.3059 121.112 82.2429 124.056 85.8658 124.056Z" fill="#7E5B2D"/>
<path d="M158.906 124.056C162.528 124.056 165.465 121.112 165.465 117.48C165.465 113.848 162.528 110.904 158.906 110.904C155.283 110.904 152.346 113.848 152.346 117.48C152.346 121.112 155.283 124.056 158.906 124.056Z" fill="#7E5B2D"/>
<path d="M118.88 112.789V127.805C118.88 132.339 125.91 132.339 125.91 127.805V112.789C125.91 108.254 118.88 108.254 118.88 112.789Z" fill="#7E5C2E"/>
<path d="M107.641 139.072C107.582 143.174 107.347 147.395 109.423 151.124C112.477 156.62 119.135 158.387 125.049 157.582C133.978 156.345 138.169 147.414 137.15 139.072C136.622 134.636 129.592 134.577 130.12 139.072C130.649 143.567 129.846 149.083 125.068 150.437C121.465 151.458 116.531 150.575 115.121 146.747C114.24 144.332 114.631 141.604 114.651 139.092C114.71 134.557 107.699 134.557 107.621 139.092L107.641 139.072Z" fill="#7E5C2E"/>
</g>
<defs>
<clipPath id="clip0_305_620">
<rect width="235" height="272" fill="white"/>
</clipPath>
</defs>
</svg>
